#N canvas 900 454 740 648 10;
#X obj 62 200 f;
#X obj 59 27 bng 15 250 50 0 empty empty empty 17 7 0 10 -262144 -1
-1;
#X obj 162 277 vline~;
#X obj 165 421 *~;
#X obj 62 265 sig~;
#X obj 62 322 /~ 1000;
#X obj 63 437 *~;
#X obj 64 571 +~;
#X obj 217 304 f;
#X obj 220 520 sig~;
#X obj 301 291 *;
#X obj 64 606 tabread4~ audio_file;
#X obj 301 133 r start;
#X obj 77 175 r duration;
#X obj 64 640 *~;
#X obj 206 365 *~ 2048;
#X msg 161 246 0 \, 1 \$1 0;
#X obj 209 607 tabread4~ hanning;
#X obj 59 4 inlet trigger;
#X floatatom 238 161 5 0 0 0 - - -;
#X obj 316 264 r sample;
#X obj 64 664 throw~ out;
#X obj 489 145 random;
#X obj 453 43 bng 15 250 50 0 empty empty empty 17 7 0 10 -262144 -1
-1;
#X obj 560 142 / 2;
#X obj 489 190 -;
#X obj 301 232 +;
#X floatatom 327 292 5 0 0 0 - - -;
#X floatatom 523 291 0 0 0 0 - - -;
#X obj 489 220 / 1000;
#X obj 440 408 r pitch;
#X obj 440 429 / 12;
#X obj 440 450 swap 2;
#X obj 440 471 pow;
#X obj 440 492 * 44100;
#X obj 440 513 sig~;
#X floatatom 473 430 5 0 0 0 - - -;
#X obj 522 63 expr if($f1 != 0 \, $f1 \, 0);
#X floatatom 631 95 5 0 0 0 - - -;
#X obj 522 30 r spreadValue;
#X obj 453 19 r myTest;
#X connect 0 0 16 0;
#X connect 0 0 4 0;
#X connect 1 0 0 0;
#X connect 1 0 8 0;
#X connect 1 0 23 0;
#X connect 2 0 15 0;
#X connect 2 0 3 0;
#X connect 3 0 6 1;
#X connect 4 0 5 0;
#X connect 5 0 6 0;
#X connect 6 0 7 0;
#X connect 7 0 11 0;
#X connect 8 0 9 0;
#X connect 9 0 7 1;
#X connect 10 0 8 1;
#X connect 11 0 14 0;
#X connect 12 0 19 0;
#X connect 12 0 26 0;
#X connect 13 0 0 1;
#X connect 14 0 21 0;
#X connect 15 0 17 0;
#X connect 16 0 2 0;
#X connect 17 0 14 1;
#X connect 18 0 1 0;
#X connect 20 0 10 1;
#X connect 22 0 25 0;
#X connect 23 0 26 0;
#X connect 23 0 37 0;
#X connect 23 0 22 0;
#X connect 24 0 25 1;
#X connect 25 0 29 0;
#X connect 26 0 10 0;
#X connect 26 0 27 0;
#X connect 29 0 26 1;
#X connect 29 0 28 0;
#X connect 30 0 31 0;
#X connect 30 0 36 0;
#X connect 31 0 32 0;
#X connect 32 0 33 0;
#X connect 32 1 33 1;
#X connect 33 0 34 0;
#X connect 34 0 35 0;
#X connect 35 0 3 1;
#X connect 37 0 38 0;
#X connect 37 0 22 1;
#X connect 37 0 24 0;
#X connect 39 0 37 0;
#X connect 40 0 23 0;
